<svg width="18" height="18" viewBox="0 0 18 18" fill="none" xmlns="http://www.w3.org/2000/svg">
<path d="M6.7335 0.501133C6.20494 0.488494 5.6792 0.581683 5.18719 0.775219C4.69518 0.968754 4.24684 1.25873 3.86855 1.62808C3.49026 1.99744 3.18965 2.43872 2.98441 2.92596C2.77916 3.4132 2.67343 3.93656 2.67343 4.46527C2.67343 4.99397 2.77916 5.51734 2.98441 6.00458C3.18965 6.49182 3.49026 6.9331 3.86855 7.30245C4.24684 7.67181 4.69518 7.96178 5.18719 8.15532C5.6792 8.34885 6.20494 8.44204 6.7335 8.4294C7.26205 8.44204 7.78779 8.34885 8.2798 8.15532C8.77181 7.96178 9.22015 7.67181 9.59844 7.30245C9.97673 6.9331 10.2773 6.49182 10.4826 6.00458C10.6878 5.51734 10.7936 4.99397 10.7936 4.46527C10.7936 3.93656 10.6878 3.4132 10.4826 2.92596C10.2773 2.43872 9.97673 1.99744 9.59844 1.62808C9.22015 1.25873 8.77181 0.968754 8.2798 0.775219C7.78779 0.581683 7.26205 0.488494 6.7335 0.501133Z" fill="url(#paint0_linear_313_1509)"/>
<path d="M4.46701 10.6937C3.41506 10.6937 2.40619 11.1115 1.66234 11.8554C0.918498 12.5992 0.50061 13.6081 0.50061 14.6601V17.4898H12.9664V14.6601C12.9664 13.6081 12.5486 12.5992 11.8047 11.8554C11.0609 11.1115 10.052 10.6937 9.00004 10.6937H4.46701Z" fill="url(#paint1_linear_313_1509)"/>
<path d="M14.6663 11.8337H14.0997V17.5H17.4995V14.6669C17.4995 13.9155 17.201 13.1948 16.6697 12.6635C16.1384 12.1322 15.4177 11.8337 14.6663 11.8337Z" fill="url(#paint2_linear_313_1509)"/>
<path d="M13.5331 5.03416C12.7817 5.03416 12.0611 5.33266 11.5297 5.86397C10.9984 6.39529 10.6999 7.11591 10.6999 7.86731C10.6999 8.61871 10.9984 9.33933 11.5297 9.87064C12.0611 10.402 12.7817 10.7005 13.5331 10.7005C14.2845 10.7005 15.0051 10.402 15.5364 9.87064C16.0677 9.33933 16.3662 8.61871 16.3662 7.86731C16.3662 7.11591 16.0677 6.39529 15.5364 5.86397C15.0051 5.33266 14.2845 5.03416 13.5331 5.03416Z" fill="url(#paint3_linear_313_1509)"/>
<defs>
<linearGradient id="paint0_linear_313_1509" x1="9.05866" y1="-2.31842" x2="10.1189" y2="19.5945" gradientUnits="userSpaceOnUse">
<stop stop-color="#9C2CF3"/>
<stop offset="1" stop-color="#3A49F9"/>
</linearGradient>
<linearGradient id="paint1_linear_313_1509" x1="9.05866" y1="-2.31842" x2="10.1189" y2="19.5945" gradientUnits="userSpaceOnUse">
<stop stop-color="#9C2CF3"/>
<stop offset="1" stop-color="#3A49F9"/>
</linearGradient>
<linearGradient id="paint2_linear_313_1509" x1="9.05866" y1="-2.31842" x2="10.1189" y2="19.5945" gradientUnits="userSpaceOnUse">
<stop stop-color="#9C2CF3"/>
<stop offset="1" stop-color="#3A49F9"/>
</linearGradient>
<linearGradient id="paint3_linear_313_1509" x1="9.05866" y1="-2.31842" x2="10.1189" y2="19.5945" gradientUnits="userSpaceOnUse">
<stop stop-color="#9C2CF3"/>
<stop offset="1" stop-color="#3A49F9"/>
</linearGradient>
</defs>
</svg>
