<svg width="18" height="18" viewBox="0 0 18 18" fill="none" xmlns="http://www.w3.org/2000/svg">
<path d="M12.4 16.922V17.4887H12.9667V16.922H12.4ZM1.06667 16.922H0.5V17.4887H1.06667V16.922ZM16.9333 16.9333V17.5H17.5V16.9333H16.9333ZM9.56667 4.4644C9.56652 4.83633 9.49311 5.20459 9.35065 5.54815C9.20818 5.89171 8.99943 6.20385 8.73633 6.46674C8.47323 6.72962 8.16093 6.93812 7.81726 7.08031C7.47358 7.22251 7.10526 7.29562 6.73333 7.29547V8.4288C8.92407 8.4288 10.7 6.654 10.7 4.4644H9.56667ZM6.73333 7.29547C6.3614 7.29562 5.99309 7.22251 5.64941 7.08031C5.30574 6.93812 4.99343 6.72962 4.73033 6.46674C4.46723 6.20385 4.25849 5.89171 4.11602 5.54815C3.97355 5.20459 3.90015 4.83633 3.9 4.4644H2.76667C2.76682 4.98516 2.86953 5.50079 3.06896 5.98186C3.26838 6.46292 3.56061 6.89999 3.92895 7.26812C4.29728 7.63625 4.73453 7.92823 5.2157 8.12738C5.69688 8.32652 6.21257 8.42895 6.73333 8.4288V7.29547ZM3.9 4.4644C3.90015 4.09247 3.97355 3.72421 4.11602 3.38065C4.25849 3.03709 4.46723 2.72495 4.73033 2.46206C4.99343 2.19918 5.30574 1.99068 5.64941 1.84849C5.99309 1.70629 6.3614 1.63318 6.73333 1.63333V0.5C6.21257 0.499851 5.69688 0.602275 5.2157 0.801425C4.73453 1.00057 4.29728 1.29255 3.92895 1.66068C3.56061 2.02881 3.26838 2.46588 3.06896 2.94694C2.86953 3.42801 2.76682 3.94364 2.76667 4.4644H3.9ZM6.73333 1.63333C8.29847 1.63333 9.56667 2.90153 9.56667 4.4644H10.7C10.6999 3.94364 10.5971 3.42801 10.3977 2.94694C10.1983 2.46588 9.90606 2.02881 9.53772 1.66068C9.16938 1.29255 8.73214 1.00057 8.25096 0.801425C7.76979 0.602275 7.25409 0.499851 6.73333 0.5V1.63333ZM12.4 16.3553H1.06667V17.4887H12.4V16.3553ZM1.63333 16.922V16.9186V16.9141V16.9084V16.9039V16.8993V16.8948V16.8903V16.8857V16.8801V16.8755V16.871V16.8665V16.8619V16.8574V16.8529V16.8472V16.8427V16.8381V16.8336V16.8291V16.8245V16.8189V16.8143V16.8098V16.8053V16.8007V16.7962V16.7917V16.7871V16.7815V16.7769V16.7724V16.7679V16.7633V16.7588V16.7543V16.7486V16.7441V16.7395V16.735V16.7305V16.7259V16.7214V16.7169V16.7123V16.7067V16.7021V16.6976V16.6931V16.6885V16.684V16.6795V16.6738V16.6693V16.6647V16.6602V16.6557V16.6511V16.6466V16.6421V16.6375V16.6319V16.6273V16.6228V16.6183V16.6137V16.6092V16.6047V16.6001V16.5956V16.5911V16.5854V16.5809V16.5763V16.5718V16.5673V16.5627V16.5582V16.5537V16.5491V16.5446V16.5389V16.5344V16.5299V16.5253V16.5208V16.5163V16.5117V16.5072V16.5027V16.4981V16.4936V16.4891V16.4834V16.4789V16.4743V16.4698V16.4653V16.4607V16.4562V16.4517V16.4471V16.4426V16.4381V16.4335V16.429V16.4233V16.4188V16.4143V16.4097V16.4052V16.4007V16.3961V16.3916V16.3871V16.3825V16.378V16.3735V16.3689V16.3644V16.3599V16.3553V16.3497V16.3463V16.3406V16.3361V16.3315V16.327V16.3225V16.3179V16.3134V16.3089V16.3043V16.2998V16.2953V16.2907V16.2862V16.2817V16.2771V16.2726V16.2681V16.2635V16.259V16.2545V16.2499V16.2454V16.2397V16.2352V16.2307V16.2261V16.2216V16.2171V16.2125V16.208V16.2035V16.1989V16.1944V16.1899V16.1853V16.1808V16.1763V16.1717V16.1672V16.1627V16.1581V16.1536V16.1491V16.1445V16.14V16.1355V16.1309V16.1264V16.1219V16.1173V16.1128V16.1083V16.1037V16.0992V16.0947V16.0901V16.0856V16.0811V16.0765V16.072V16.0675V16.0629V16.0584V16.0539V16.0493V16.0448V16.0403V16.0357V16.0312V16.0267V16.0221V16.0176V16.0131V16.0085V16.004V15.9995V15.9949V15.9904V15.9859V15.9825V15.9768V15.9723V15.9689V15.9643V15.9598V15.9553V15.9507V15.9462V15.9417V15.9371V15.9326V15.9281V15.9235V15.919V15.9145V15.9099V15.9054V15.9009V15.8963V15.8918V15.8873V15.8827V15.8782V15.8737V15.8703V15.8657V15.8612V15.8567V15.8521V15.8476V15.8431V15.8385V15.834V15.8295V15.8249V15.8204V15.8159V15.8113V15.8068V15.8023V15.7977V15.7943V15.7898V15.7853V15.7807V15.7762V15.7717V15.7671V15.7626V15.7581V15.7535V15.749V15.7445V15.7411V15.7365V15.732V15.7275V15.7229V15.7184V15.7139V15.7093V15.7048V15.7003V15.6957V15.6923V15.6878V15.6833V15.6787V15.6742V15.6697V15.6651V15.6606V15.6561V15.6527V15.6481V15.6436V15.6391V15.6345V15.63V15.6255V15.6209V15.6164V15.613V15.6085V15.6039V15.5994V15.5949V15.5903V15.5858V15.5813V15.5779V15.5733V15.5688V15.5643V15.5597V15.5552V15.5507V15.5473V15.5427V15.5382V15.5337V15.5291V15.5246V15.5201V15.5155V15.5121V15.5076V15.5031V15.4985V15.494V15.4895V15.4849V15.4815V15.477V15.4725V15.4679V15.4634V15.46V15.4555V15.4509V15.4464V15.4419V15.4373V15.4339V15.4294V15.4249V15.4203V15.4158V15.4113V15.4067V15.4033V15.3988V15.3943V15.3897V15.3852V15.3818V15.3773V15.3727V15.3682V15.3637V15.3591V15.3557V15.3512V15.3467V15.3421V15.3376V15.3342V15.3297V15.3251V15.3206V15.3161V15.3127V15.3081V15.3036V15.2991V15.2957V15.2911V15.2866V15.2821V15.2775V15.2741V15.2696V15.2651V15.2605V15.2571V15.2526V15.2481V15.2435V15.239V15.2356V15.2311V15.2265V15.222V15.2175V15.2141V15.2095V15.205V15.2005V15.1971V15.1925V15.188V15.1835V15.1801V15.1755V15.171V15.1665V15.1631V15.1585V15.154V15.1495V15.1461V15.1415V15.137V15.1325V15.1291V15.1245V15.12V15.1155V15.1121V15.1075V15.103V15.0996V15.0951V15.0905V15.086V15.0826V15.0781V15.0735V15.069V15.0656V15.0611V15.0565V15.0531V15.0486V15.0441V15.0395V15.0361V15.0316V15.0271V15.0237V15.0191V15.0146V15.0101V15.0067V15.0021V14.9976V14.9942V14.9897V14.9851V14.9806V14.9772V14.9727V14.9693V14.9647V14.9602V14.9557V14.9523V14.9477V14.9432V14.9398V14.9353V14.9307V14.9273V14.9228V14.9183V14.9149V14.9103V14.9058V14.9024V14.8979V14.8933V14.8899V14.8854V14.8809V14.8775V14.8729V14.8684V14.865V14.8605V14.8559V14.8525V14.848V14.8435V14.8401V14.8355V14.831V14.8276V14.8231V14.8185V14.8151V14.8106V14.8072V14.8027V14.7981V14.7947V14.7902V14.7857V14.7823V14.7777V14.7743V14.7698V14.7653V14.7619V14.7573V14.7528V14.7494V14.7449V14.7415V14.7369V14.7324V14.729V14.7245V14.7211V14.7165V14.712V14.7086V14.7041V14.7007V14.6961V14.6916V14.6882V14.6837V14.6803V14.6757V14.6712V14.6678V14.6633V14.6599H0.5V16.922H1.63333ZM4.46667 11.8265H9V10.6932H4.46667V11.8265ZM11.8333 14.6599V16.922H12.9667V16.9175V16.9129V16.9073V16.9027V16.8982V16.8937V16.8891V16.8846V16.8789V16.8744V16.8699V16.8653V16.8608V16.8563V16.8517V16.8461V16.8415V16.837V16.8325V16.8279V16.8234V16.8177V16.8132V16.8087V16.8041V16.7996V16.7951V16.7905V16.786V16.7803V16.7758V16.7713V16.7667V16.7622V16.7577V16.7531V16.7475V16.7429V16.7384V16.7339V16.7293V16.7248V16.7203V16.7157V16.7112V16.7055V16.701V16.6965V16.6919V16.6874V16.6829V16.6783V16.6727V16.6681V16.6636V16.6591V16.6545V16.65V16.6455V16.6409V16.6364V16.6307V16.6262V16.6217V16.6171V16.6126V16.6081V16.6035V16.599V16.5945V16.5899V16.5843V16.5797V16.5752V16.5707V16.5661V16.5616V16.5571V16.5525V16.548V16.5435V16.5378V16.5333V16.5287V16.5242V16.5197V16.5151V16.5106V16.5061V16.5015V16.497V16.4925V16.4879V16.4823V16.4777V16.4732V16.4687V16.4641V16.4596V16.4551V16.4505V16.446V16.4415V16.4369V16.4324V16.4279V16.4222V16.4177V16.4131V16.4086V16.4041V16.3995V16.395V16.3905V16.3859V16.3814V16.3769V16.3723V16.3678V16.3633V16.3587V16.3542V16.3485V16.3451V16.3395V16.3349V16.3304V16.3259V16.3213V16.3168V16.3123V16.3077V16.3032V16.2987V16.2941V16.2896V16.2851V16.2805V16.276V16.2715V16.2669V16.2624V16.2579V16.2533V16.2488V16.2443V16.2386V16.2341V16.2295V16.225V16.2205V16.2159V16.2114V16.2069V16.2023V16.1978V16.1933V16.1887V16.1842V16.1797V16.1751V16.1706V16.1661V16.1615V16.157V16.1525V16.1479V16.1434V16.1389V16.1343V16.1298V16.1253V16.1207V16.1162V16.1117V16.1071V16.1026V16.0981V16.0935V16.089V16.0845V16.0799V16.0754V16.0709V16.0663V16.0618V16.0573V16.0527V16.0482V16.0437V16.0391V16.0346V16.0301V16.0255V16.021V16.0165V16.0119V16.0074V16.0029V15.9983V15.9938V15.9893V15.9847V15.9813V15.9757V15.9711V15.9677V15.9632V15.9587V15.9541V15.9496V15.9451V15.9405V15.936V15.9315V15.9269V15.9224V15.9179V15.9133V15.9088V15.9043V15.8997V15.8952V15.8907V15.8861V15.8816V15.8771V15.8725V15.8691V15.8646V15.8601V15.8555V15.851V15.8465V15.8419V15.8374V15.8329V15.8283V15.8238V15.8193V15.8147V15.8102V15.8057V15.8011V15.7966V15.7932V15.7887V15.7841V15.7796V15.7751V15.7705V15.766V15.7615V15.7569V15.7524V15.7479V15.7433V15.7399V15.7354V15.7309V15.7263V15.7218V15.7173V15.7127V15.7082V15.7037V15.6991V15.6946V15.6912V15.6867V15.6821V15.6776V15.6731V15.6685V15.664V15.6595V15.6549V15.6515V15.647V15.6425V15.6379V15.6334V15.6289V15.6243V15.6198V15.6153V15.6119V15.6073V15.6028V15.5983V15.5937V15.5892V15.5847V15.5801V15.5767V15.5722V15.5677V15.5631V15.5586V15.5541V15.5495V15.5461V15.5416V15.5371V15.5325V15.528V15.5235V15.5189V15.5144V15.511V15.5065V15.5019V15.4974V15.4929V15.4883V15.4838V15.4804V15.4759V15.4713V15.4668V15.4623V15.4589V15.4543V15.4498V15.4453V15.4407V15.4362V15.4328V15.4283V15.4237V15.4192V15.4147V15.4101V15.4056V15.4022V15.3977V15.3931V15.3886V15.3841V15.3807V15.3761V15.3716V15.3671V15.3625V15.358V15.3546V15.3501V15.3455V15.341V15.3365V15.3331V15.3285V15.324V15.3195V15.3149V15.3115V15.307V15.3025V15.2979V15.2945V15.29V15.2855V15.2809V15.2764V15.273V15.2685V15.2639V15.2594V15.256V15.2515V15.2469V15.2424V15.2379V15.2345V15.2299V15.2254V15.2209V15.2163V15.2129V15.2084V15.2039V15.1993V15.1959V15.1914V15.1869V15.1823V15.1789V15.1744V15.1699V15.1653V15.1619V15.1574V15.1529V15.1483V15.1449V15.1404V15.1359V15.1313V15.1279V15.1234V15.1189V15.1143V15.1109V15.1064V15.1019V15.0985V15.0939V15.0894V15.0849V15.0815V15.0769V15.0724V15.0679V15.0645V15.0599V15.0554V15.052V15.0475V15.0429V15.0384V15.035V15.0305V15.0259V15.0225V15.018V15.0135V15.0089V15.0055V15.001V14.9965V14.9931V14.9885V14.984V14.9795V14.9761V14.9715V14.9681V14.9636V14.9591V14.9545V14.9511V14.9466V14.9421V14.9387V14.9341V14.9296V14.9262V14.9217V14.9171V14.9137V14.9092V14.9047V14.9013V14.8967V14.8922V14.8888V14.8843V14.8797V14.8763V14.8718V14.8673V14.8639V14.8593V14.8548V14.8514V14.8469V14.8423V14.8389V14.8344V14.8299V14.8265V14.8219V14.8174V14.814V14.8095V14.8061V14.8015V14.797V14.7936V14.7891V14.7845V14.7811V14.7766V14.7732V14.7687V14.7641V14.7607V14.7562V14.7517V14.7483V14.7437V14.7403V14.7358V14.7313V14.7279V14.7233V14.7199V14.7154V14.7109V14.7075V14.7029V14.6995V14.695V14.6905V14.6871V14.6825V14.6791V14.6746V14.6701V14.6667V14.6621V14.6587H11.8333V14.6599ZM9 11.8265C9.75145 11.8265 10.4721 12.125 11.0035 12.6564C11.5348 13.1878 11.8333 13.9084 11.8333 14.6599H12.9667C12.9667 13.6078 12.5488 12.5989 11.8049 11.855C11.061 11.1111 10.052 10.6932 9 10.6932V11.8265ZM1.63333 14.6599C1.63333 13.9084 1.93184 13.1878 2.4632 12.6564C2.99455 12.125 3.71522 11.8265 4.46667 11.8265V10.6932C3.41464 10.6932 2.4057 11.1111 1.66181 11.855C0.917915 12.5989 0.5 13.6078 0.5 14.6599H1.63333ZM16.3667 15.2333V16.9333H17.5V15.2333H16.3667ZM16.9333 16.3667H14.1V17.5H16.9333V16.3667ZM14.1 12.9667C14.7012 12.9667 15.2777 13.2055 15.7028 13.6306C16.1279 14.0556 16.3667 14.6322 16.3667 15.2333H17.5C17.5 14.3316 17.1418 13.4668 16.5042 12.8292C15.8665 12.1915 15.0017 11.8333 14.1 11.8333V12.9667ZM13.5333 9.56667C13.0825 9.56667 12.6501 9.38756 12.3313 9.06875C12.0124 8.74994 11.8333 8.31753 11.8333 7.86667H10.7C10.7 8.61811 10.9985 9.33878 11.5299 9.87014C12.0612 10.4015 12.7819 10.7 13.5333 10.7V9.56667ZM15.2333 7.86667C15.2333 8.31753 15.0542 8.74994 14.7354 9.06875C14.4166 9.38756 13.9842 9.56667 13.5333 9.56667V10.7C14.2848 10.7 15.0054 10.4015 15.5368 9.87014C16.0682 9.33878 16.3667 8.61811 16.3667 7.86667H15.2333ZM13.5333 6.16667C13.9842 6.16667 14.4166 6.34577 14.7354 6.66459C15.0542 6.9834 15.2333 7.4158 15.2333 7.86667H16.3667C16.3667 7.11522 16.0682 6.39455 15.5368 5.8632C15.0054 5.33184 14.2848 5.03333 13.5333 5.03333V6.16667ZM13.5333 5.03333C12.7819 5.03333 12.0612 5.33184 11.5299 5.8632C10.9985 6.39455 10.7 7.11522 10.7 7.86667H11.8333C11.8333 7.4158 12.0124 6.9834 12.3313 6.66459C12.6501 6.34577 13.0825 6.16667 13.5333 6.16667V5.03333Z" fill="black"/>
</svg>
